<?xml version="1.0" encoding="UTF-8"?>
<svg id="Layer_1" data-name="Layer 1" xmlns="http://www.w3.org/2000/svg" viewBox="0 0 288.32 67.13">
  <defs>
    <style>
      .cls-1 {
        fill: #a8cb38;
      }
    </style>
  </defs>
  <path d="M26.82,55.15H0V12.58h8.21v35.39h18.61v7.18Z"/>
  <path d="M39.96,36.97l9.24-.67v-1.22c0-3.1-2.07-4.99-5.78-4.99-2.86,0-5.53.91-8.33,2.8l-3.35-5.66c3.65-2.68,7.84-4.2,12.65-4.2,7.54,0,12.53,4.38,12.53,11.07v12.35c0,1.15.61,1.82,1.76,1.82h1.64v6.87h-3.71c-3.04,0-5.35-1.4-6.45-3.71-2.19,2.8-5.66,4.5-9.85,4.5-6.26,0-10.88-4.07-10.88-9.61s3.83-8.88,10.52-9.37ZM42.09,49.86c3.95,0,7.11-2.55,7.11-5.72v-2.01l-8.15.73c-2.67.24-4.01,1.34-4.01,3.41,0,2.19,2.07,3.59,5.05,3.59Z"/>
  <path d="M52.8,12.58h34.42v7.18h-13.14v35.39h-8.21V19.76h-13.07v-7.18Z"/>
  <path d="M95.44,22.19c9.42,0,16.11,6.99,16.11,16.78v2.31h-24.26c1.03,4.07,4.44,7.05,8.82,7.05,3.34,0,5.96-1.16,8.27-4.13l5.53,4.13c-3.16,4.32-7.91,6.81-13.74,6.81-9.61,0-17.03-6.93-17.03-16.54,0-8.76,6.99-16.42,16.3-16.42ZM87.41,35.2h16.12c-1.16-3.89-4.44-6.2-8.27-6.2s-6.75,2.37-7.84,6.2Z"/>
  <path class="cls-1" d="M129.38,33.38l-15.75-20.8h10.22l10.34,14.29L157.23,0h9.85l-28.15,33.2,16.66,21.95h-10.28l-11.25-15.51-11.19,15.51h-9.91l16.42-21.77Z"/>
  <path d="M165.32,22.92v2.98c2.8-2.37,6.32-3.77,10.16-3.77,9.36,0,16.78,7.48,16.78,16.54s-7.42,16.54-16.78,16.54c-3.83,0-7.3-1.4-10.1-3.71v15.63h-7.97V22.92h7.9ZM174.81,48.22c5.23,0,9.55-4.2,9.55-9.55s-4.32-9.61-9.55-9.61-9.55,4.32-9.55,9.61,4.26,9.55,9.55,9.55Z"/>
  <path d="M211.85,22.19c9.42,0,16.11,6.99,16.11,16.78v2.31h-24.26c1.03,4.07,4.44,7.05,8.82,7.05,3.34,0,5.96-1.16,8.27-4.13l5.53,4.13c-3.16,4.32-7.91,6.81-13.74,6.81-9.61,0-17.03-6.93-17.03-16.54,0-8.76,6.99-16.42,16.3-16.42ZM203.83,35.2h16.12c-1.16-3.89-4.44-6.2-8.27-6.2s-6.75,2.37-7.84,6.2Z"/>
  <path d="M247.07,30.7c-3.77,0-6.69,2.74-6.69,7.54v16.91h-7.97v-31.44h7.9v3.41c1.58-2.31,4.08-3.71,7.48-3.71h2.13v7.3h-2.86Z"/>
  <path d="M258.14,47.24v-16.66h-6.14v-6.87h6.14v-9.12h7.9v9.12h6.93v6.87h-6.93v15.26c0,1.64,1.16,2.43,2.98,2.43h3.95v6.87h-6.2c-5.72,0-8.63-3.41-8.63-7.91Z"/>
  <circle class="cls-1" cx="283.75" cy="50.58" r="4.57"/>
</svg>